<svg xmlns="http://www.w3.org/2000/svg" xmlns:xlink="http://www.w3.org/1999/xlink" viewBox="0 0 87.87 91.6">
  <defs>
    <style>
      .cls-1 {
        fill: url(#linear-gradient);
      }

      .cls-2 {
        fill: #fff;
      }

      .cls-3 {
        fill: none;
        stroke: #000;
        stroke-miterlimit: 10;
      }
    </style>
    <linearGradient id="linear-gradient" x1="6" y1="48.8" x2="93.87" y2="48.8" gradientUnits="userSpaceOnUse">
      <stop offset="0" stop-color="#020202"/>
      <stop offset="1"/>
    </linearGradient>
  </defs>
  <title>service_1</title>
  <g id="base">
    <g>
      <path class="cls-1" d="M39.46,7.92A12.39,12.39,0,0,1,44.73,7s-.88-2.74,2.63-3.65c0,0,7.9-1.82,7.9,2.74,0,0,4.09.61,5.12,1.33.23.16.3.33.14.49-.88.92.88-4.56,6.14-.91,0,0,4.39.91,3.51,4.56,0,0,4.39,2.74,4.39,3.65,0,0,2.63-3.65,6.15,1.83,0,0,4.38,2.73,1.75,5.47L86,28s2.63-1.83,4.39,4.56c0,0,2.63,4.56-.88,5.47a33.34,33.34,0,0,1,.88,5.48s3.51-.91,3.51,5.47c0,0,0,7.3-3.51,5.48a20.21,20.21,0,0,1-.88,5.47s3.51.91.88,6.39c0,0-1.76,5.47-4.39,3.65,0,0-2.63,4.56-3.51,4.56,0,0,2.63,1.83-1.75,7.3,0,0-3.52,3.65-6.15.91,0,0-1.75,2.74-4.39,2.74,0,0,1.76,4.56-4.38,5.48,0,0-3.51,2.73-6.15-.92,0,0-.87.92-4.38.92,0,0,1.65,3.42-4.65,3.63H50c-7,0-4.39-2.73-5.26-3.64,0,0-4.39,0-5.27-.92,0,0-.88,4.56-7,.92,0,0-4.39-1.83-2.63-5.48a12.7,12.7,0,0,1-4.39-2.74s-2.63,3.65-7-1.82c0,0-3.51-2.74-.88-6.39l-2.63-3.65s-4.39.91-5.26-4.56c0,0-3.51-4.56.87-6.39a13.76,13.76,0,0,1-.87-5.47s-4.39.91-3.51-6.39c0,0,0-3.65,2.63-4.56A39,39,0,0,0,10.5,38s-4.38-.91-.87-6.38c0,0,.87-5.48,5.26-3.65a26.52,26.52,0,0,1,2.63-5.48s-2.63-2.74,1.76-6.39c0,0,2.63-3.65,5.26-1.82l5.27-2.74S28.05,7.92,33.32,7C33.32,7,37.71,3.36,39.46,7.92Z" transform="translate(-6 -3)"/>
      <ellipse class="cls-2" cx="44" cy="46" rx="34" ry="35"/>
    </g>
  </g>
  <g id="icono">
    <g>
      <line class="cls-3" x1="26.5" y1="35.5" x2="23.16" y2="33.46"/>
      <path class="cls-3" d="M75,48.5A24.5,24.5,0,1,1,50.5,24,24.5,24.5,0,0,1,75,48.5Z" transform="translate(-6 -3)"/>
      <line class="cls-3" x1="65.37" y1="57.73" x2="62.04" y2="55.69"/>
      <line class="cls-3" x1="54.5" y1="27.25" x2="56.91" y2="24.17"/>
      <line class="cls-3" x1="24.15" y1="58.9" x2="27.26" y2="56.52"/>
      <line class="cls-3" x1="32.5" y1="24.5" x2="34.5" y2="27.5"/>
      <line class="cls-3" x1="44.5" y1="21.5" x2="44.5" y2="24.5"/>
      <line class="cls-3" x1="20.5" y1="45.5" x2="23.5" y2="45.5"/>
      <line class="cls-3" x1="32.5" y1="66.86" x2="34.5" y2="63.5"/>
      <line class="cls-3" x1="44.5" y1="70.5" x2="44.5" y2="66.5"/>
      <line class="cls-3" x1="56.49" y1="66.86" x2="54.5" y2="63.5"/>
      <line class="cls-3" x1="69.5" y1="45.5" x2="64.5" y2="45.5"/>
      <line class="cls-3" x1="65.37" y1="32.67" x2="62.5" y2="34.5"/>
      <circle class="cls-3" cx="44.5" cy="45.5" r="17"/>
      <circle class="cls-3" cx="44.5" cy="45.5" r="14"/>
      <circle class="cls-3" cx="44.46" cy="45.46" r="3"/>
      <polyline class="cls-3" points="33.76 36.53 42.5 41.5 42.5 31.5"/>
      <polyline class="cls-3" points="46.95 31.72 46.5 41.5 54.95 36.2"/>
      <polyline class="cls-3" points="31.65 39.93 39.5 45.5 31.65 50.45"/>
      <polyline class="cls-3" points="34.09 54.86 42.5 49.5 42.5 59.36"/>
      <polyline class="cls-3" points="46.87 59.3 46.5 49.5 54.5 54.5"/>
      <polyline class="cls-3" points="57.73 40.95 49.5 45.5 57.45 50.81"/>
    </g>
  </g>
</svg>
