<svg xmlns="http://www.w3.org/2000/svg" xmlns:xlink="http://www.w3.org/1999/xlink" viewBox="0 0 87.87 91.6">
  <defs>
    <style>
      .cls-1 {
        fill: url(#linear-gradient);
      }

      .cls-2 {
        fill: #fff;
      }

      .cls-3 {
        fill: none;
      }

      .cls-3, .cls-5 {
        stroke: #231f20;
        stroke-miterlimit: 10;
      }

      .cls-4, .cls-5 {
        fill: #231f20;
      }
    </style>
    <linearGradient id="linear-gradient" x1="6" y1="48.8" x2="93.87" y2="48.8" gradientUnits="userSpaceOnUse">
      <stop offset="0" stop-color="#020202"/>
      <stop offset="1"/>
    </linearGradient>
  </defs>
  <title>service7</title>
  <g id="base">
    <g>
      <path class="cls-1" d="M39.46,7.92A12.39,12.39,0,0,1,44.73,7s-.88-2.74,2.63-3.65c0,0,7.9-1.82,7.9,2.74,0,0,4.09.61,5.12,1.33.23.16.3.33.14.49-.88.92.88-4.56,6.14-.91,0,0,4.39.91,3.51,4.56,0,0,4.39,2.74,4.39,3.65,0,0,2.63-3.65,6.15,1.83,0,0,4.38,2.73,1.75,5.47L86,28s2.63-1.83,4.39,4.56c0,0,2.63,4.56-.88,5.47a33.34,33.34,0,0,1,.88,5.48s3.51-.91,3.51,5.47c0,0,0,7.3-3.51,5.48a20.21,20.21,0,0,1-.88,5.47s3.51.91.88,6.39c0,0-1.76,5.47-4.39,3.65,0,0-2.63,4.56-3.51,4.56,0,0,2.63,1.83-1.75,7.3,0,0-3.52,3.65-6.15.91,0,0-1.75,2.74-4.39,2.74,0,0,1.76,4.56-4.38,5.48,0,0-3.51,2.73-6.15-.92,0,0-.87.92-4.38.92,0,0,1.65,3.42-4.65,3.63H50c-7,0-4.39-2.73-5.26-3.64,0,0-4.39,0-5.27-.92,0,0-.88,4.56-7,.92,0,0-4.39-1.83-2.63-5.48a12.7,12.7,0,0,1-4.39-2.74s-2.63,3.65-7-1.82c0,0-3.51-2.74-.88-6.39l-2.63-3.65s-4.39.91-5.26-4.56c0,0-3.51-4.56.87-6.39a13.76,13.76,0,0,1-.87-5.47s-4.39.91-3.51-6.39c0,0,0-3.65,2.63-4.56A39,39,0,0,0,10.5,38s-4.38-.91-.87-6.38c0,0,.87-5.48,5.26-3.65a26.52,26.52,0,0,1,2.63-5.48s-2.63-2.74,1.76-6.39c0,0,2.63-3.65,5.26-1.82l5.27-2.74S28.05,7.92,33.32,7C33.32,7,37.71,3.36,39.46,7.92Z" transform="translate(-6 -3)"/>
      <ellipse class="cls-2" cx="44" cy="46" rx="34" ry="35"/>
    </g>
  </g>
  <g id="icono">
    <path class="cls-3" d="M28,45.67" transform="translate(-6 -3)"/>
    <path class="cls-3" d="M33.38,35.5s1.2,2.39,1.2,7.18a32,32,0,0,1,7.78,9S40,54,43,52.85c0,0,3,5.38,3.59,7.77,0,0,0,3,1.8,3a45.9,45.9,0,0,1,5.38,4.19l3-2.39s2.4-1.8-6-16.75c0,0-3,1.2-.6-1.2,0,0-8.37-13.16-13.16-13.16Z" transform="translate(-6 -3)"/>
    <path class="cls-4" d="M43-8" transform="translate(-6 -3)"/>
    <path class="cls-3" d="M35.83,34.69,34,32.51l-3,1.2,1.2,1.79H31a16.62,16.62,0,0,1-.6,7.18A60.57,60.57,0,0,1,45.35,66l7.18,3,1.19,1.79,3-1.79-1.58-2.32" transform="translate(-6 -3)"/>
    <path class="cls-3" d="M43.27,37.67" transform="translate(-6 -3)"/>
    <path class="cls-5" d="M48.65,27.5s1.2,2.39,1.2,7.18a31.84,31.84,0,0,1,7.77,9s-2.39,2.39.6,1.2c0,0,3,5.38,3.59,7.77,0,0,0,3,1.8,3A45.9,45.9,0,0,1,69,59.8l3-2.39s2.39-1.8-6-16.75c0,0-3,1.2-.6-1.2,0,0-8.37-13.16-13.16-13.16Z" transform="translate(-6 -3)"/>
    <path class="cls-3" d="M51.09,26.69l-1.84-2.18-3,1.2,1.2,1.79h-1.2a16.62,16.62,0,0,1-.6,7.18A60.57,60.57,0,0,1,60.62,58l7.17,3L69,62.79,72,61l-1.59-2.32" transform="translate(-6 -3)"/>
  </g>
</svg>
