<svg xmlns="http://www.w3.org/2000/svg" xmlns:xlink="http://www.w3.org/1999/xlink" viewBox="0 0 87.87 91.6">
  <defs>
    <style>
      .cls-1 {
        fill: url(#linear-gradient);
      }

      .cls-2 {
        fill: #fff;
      }

      .cls-3 {
        fill: none;
        stroke: #231f20;
        stroke-miterlimit: 10;
      }
    </style>
    <linearGradient id="linear-gradient" x1="6" y1="48.8" x2="93.87" y2="48.8" gradientUnits="userSpaceOnUse">
      <stop offset="0" stop-color="#020202"/>
      <stop offset="1"/>
    </linearGradient>
  </defs>
  <title>service2svg</title>
  <g id="base">
    <g>
      <path class="cls-1" d="M39.46,7.92A12.39,12.39,0,0,1,44.73,7s-.88-2.74,2.63-3.65c0,0,7.9-1.82,7.9,2.74,0,0,4.09.61,5.12,1.33.23.16.3.33.14.49-.88.92.88-4.56,6.14-.91,0,0,4.39.91,3.51,4.56,0,0,4.39,2.74,4.39,3.65,0,0,2.63-3.65,6.15,1.83,0,0,4.38,2.73,1.75,5.47L86,28s2.63-1.83,4.39,4.56c0,0,2.63,4.56-.88,5.47a33.34,33.34,0,0,1,.88,5.48s3.51-.91,3.51,5.47c0,0,0,7.3-3.51,5.48a20.21,20.21,0,0,1-.88,5.47s3.51.91.88,6.39c0,0-1.76,5.47-4.39,3.65,0,0-2.63,4.56-3.51,4.56,0,0,2.63,1.83-1.75,7.3,0,0-3.52,3.65-6.15.91,0,0-1.75,2.74-4.39,2.74,0,0,1.76,4.56-4.38,5.48,0,0-3.51,2.73-6.15-.92,0,0-.87.92-4.38.92,0,0,1.65,3.42-4.65,3.63H50c-7,0-4.39-2.73-5.26-3.64,0,0-4.39,0-5.27-.92,0,0-.88,4.56-7,.92,0,0-4.39-1.83-2.63-5.48a12.7,12.7,0,0,1-4.39-2.74s-2.63,3.65-7-1.82c0,0-3.51-2.74-.88-6.39l-2.63-3.65s-4.39.91-5.26-4.56c0,0-3.51-4.56.87-6.39a13.76,13.76,0,0,1-.87-5.47s-4.39.91-3.51-6.39c0,0,0-3.65,2.63-4.56A39,39,0,0,0,10.5,38s-4.38-.91-.87-6.38c0,0,.87-5.48,5.26-3.65a26.52,26.52,0,0,1,2.63-5.48s-2.63-2.74,1.76-6.39c0,0,2.63-3.65,5.26-1.82l5.27-2.74S28.05,7.92,33.32,7C33.32,7,37.71,3.36,39.46,7.92Z" transform="translate(-6 -3)"/>
      <ellipse class="cls-2" cx="44" cy="46" rx="34" ry="35"/>
    </g>
  </g>
  <g id="icono">
    <path class="cls-3" d="M42.5,33.5v32s0,5,4,5h7a4.37,4.37,0,0,0,4-3v-34s-1-4-4-4h-7S42.5,29.5,42.5,33.5Z" transform="translate(-6 -3)"/>
    <polyline class="cls-3" points="36.5 41.3 33.5 41.5 33.5 52.5 36.5 52.5"/>
    <polyline class="cls-3" points="51.5 41.68 54.5 41.5 54.5 45.47 54.5 46 54.5 52.5 51.5 52.5"/>
    <polyline class="cls-3" points="54.5 45.5 61.5 45.5 61.5 48.5 54.5 48.5"/>
    <polyline class="cls-3" points="33.5 45.5 27.5 45.5 27.5 48.5 33.5 48.5"/>
    <polyline class="cls-3" points="23.5 32.5 23.5 35.5 28.5 35.5 28.5 37.5 34.5 33.5 28.5 30.5 28.5 32.5 23.5 32.5"/>
    <polyline class="cls-3" points="64.99 61.96 64.92 58.96 59.92 59.07 59.88 57.08 53.97 61.21 60.03 64.07 59.99 62.07 64.99 61.96"/>
    <line class="cls-3" x1="41.21" y1="26.5" x2="41.5" y2="44.5"/>
    <line class="cls-3" x1="44" y1="67.5" x2="44.5" y2="47.5"/>
    <line class="cls-3" x1="47.5" y1="26.5" x2="47.5" y2="44.5"/>
    <line class="cls-3" x1="40.5" y1="67.5" x2="40.5" y2="57.5"/>
    <line class="cls-3" x1="48.28" y1="67.4" x2="48.5" y2="57.5"/>
    <line class="cls-3" x1="44.25" y1="26.5" x2="44.5" y2="35.5"/>
  </g>
</svg>
