<svg xmlns="http://www.w3.org/2000/svg" xmlns:xlink="http://www.w3.org/1999/xlink" viewBox="0 0 87.87 91.6">
  <defs>
    <style>
      .cls-1 {
        fill: url(#linear-gradient);
      }

      .cls-2 {
        fill: #fff;
      }

      .cls-3 {
        fill: none;
        stroke: #020202;
        stroke-miterlimit: 10;
      }
    </style>
    <linearGradient id="linear-gradient" x1="6" y1="48.8" x2="93.87" y2="48.8" gradientUnits="userSpaceOnUse">
      <stop offset="0" stop-color="#020202"/>
      <stop offset="1"/>
    </linearGradient>
  </defs>
  <title>service4</title>
  <g id="base">
    <g>
      <path class="cls-1" d="M39.46,7.92A12.39,12.39,0,0,1,44.73,7s-.88-2.74,2.63-3.65c0,0,7.9-1.82,7.9,2.74,0,0,4.09.61,5.12,1.33.23.16.3.33.14.49-.88.92.88-4.56,6.14-.91,0,0,4.39.91,3.51,4.56,0,0,4.39,2.74,4.39,3.65,0,0,2.63-3.65,6.15,1.83,0,0,4.38,2.73,1.75,5.47L86,28s2.63-1.83,4.39,4.56c0,0,2.63,4.56-.88,5.47a33.34,33.34,0,0,1,.88,5.48s3.51-.91,3.51,5.47c0,0,0,7.3-3.51,5.48a20.21,20.21,0,0,1-.88,5.47s3.51.91.88,6.39c0,0-1.76,5.47-4.39,3.65,0,0-2.63,4.56-3.51,4.56,0,0,2.63,1.83-1.75,7.3,0,0-3.52,3.65-6.15.91,0,0-1.75,2.74-4.39,2.74,0,0,1.76,4.56-4.38,5.48,0,0-3.51,2.73-6.15-.92,0,0-.87.92-4.38.92,0,0,1.65,3.42-4.65,3.63H50c-7,0-4.39-2.73-5.26-3.64,0,0-4.39,0-5.27-.92,0,0-.88,4.56-7,.92,0,0-4.39-1.83-2.63-5.48a12.7,12.7,0,0,1-4.39-2.74s-2.63,3.65-7-1.82c0,0-3.51-2.74-.88-6.39l-2.63-3.65s-4.39.91-5.26-4.56c0,0-3.51-4.56.87-6.39a13.76,13.76,0,0,1-.87-5.47s-4.39.91-3.51-6.39c0,0,0-3.65,2.63-4.56A39,39,0,0,0,10.5,38s-4.38-.91-.87-6.38c0,0,.87-5.48,5.26-3.65a26.52,26.52,0,0,1,2.63-5.48s-2.63-2.74,1.76-6.39c0,0,2.63-3.65,5.26-1.82l5.27-2.74S28.05,7.92,33.32,7C33.32,7,37.71,3.36,39.46,7.92Z" transform="translate(-6 -3)"/>
      <ellipse class="cls-2" cx="44" cy="46" rx="34" ry="35"/>
    </g>
  </g>
  <g id="icono">
    <circle class="cls-3" cx="33" cy="59" r="4.5"/>
    <circle class="cls-3" cx="33" cy="59" r="1.5"/>
    <polygon class="cls-3" points="32.5 50.5 41.5 59.5 43.5 57.5 36.87 50.87 34.5 48.5 32.5 50.5"/>
    <rect class="cls-3" x="54.59" y="38.64" width="2.83" height="12.73" transform="translate(-21.42 49.78) rotate(-45)"/>
    <rect class="cls-3" x="63.59" y="32.46" width="2.83" height="7.07" transform="translate(-12.42 53.51) rotate(-45)"/>
    <polyline class="cls-3" points="58.5 30.5 60.5 28.5 63.5 31.5 61.53 33.53"/>
    <line class="cls-3" x1="50" y1="40" x2="57" y2="33"/>
    <line class="cls-3" x1="52" y1="42" x2="59" y2="35"/>
    <line class="cls-3" x1="33.77" y1="54.57" x2="35.18" y2="53.18"/>
    <line class="cls-3" x1="37.44" y1="58.31" x2="38.85" y2="56.85"/>
    <line class="cls-3" x1="36.5" y1="50.5" x2="46.55" y2="40.55"/>
    <line class="cls-3" x1="41.53" y1="55.53" x2="51.53" y2="45.53"/>
    <path class="cls-3" d="M41.5,51.5s2-2,4,1l4,4s2,1,3,0" transform="translate(-6 -3)"/>
    <path class="cls-3" d="M44.5,47.5s2-2,5,2L53.09,53s1.41,2.54,3.41-.46" transform="translate(-6 -3)"/>
    <path class="cls-3" d="M47.5,44.5s2-2,5,1l4,5s2,1,3,0" transform="translate(-6 -3)"/>
  </g>
</svg>
