<svg id="Layer_1" data-name="Layer 1" xmlns="http://www.w3.org/2000/svg" viewBox="0 0 144.25 65.89">
  <defs>
    <style>
      .cls-1 {
        fill: none;
        stroke: #fff;
        stroke-miterlimit: 10;
        stroke-width: 3px;
      }

      .cls-2 {
        fill: #fff;
      }
    </style>
  </defs>
  <title>logo</title>
  <path class="cls-1" d="M29.52,70.37" transform="translate(-5.79 -47.08)"/>
  <path class="cls-1" d="M29.52,62.83" transform="translate(-5.79 -47.08)"/>
  <path class="cls-2" d="M32.85,67a116.43,116.43,0,0,0-13.16,5.2,57,57,0,0,0-6.17,3.31,16,16,0,0,0-4.95,4.41,3.86,3.86,0,0,0-.51,1.3,13.22,13.22,0,0,0,0,1.59l0,3.56.09,7.11,0,1.78V96.6a1.42,1.42,0,0,0,0,.31A5.41,5.41,0,0,0,9.39,99.5a9.28,9.28,0,0,0,5.37,2.94,21.13,21.13,0,0,0,3.3.44c1.11.07,2.27,0,3.47,0l7.12,0,14.23-.08,14.23,0,14.23,0-1.5,1.5h0c.11-3.24.36-6.41.72-9.59a89.89,89.89,0,0,1,1.59-9.49,30.57,30.57,0,0,1,3.43-9.13,7.48,7.48,0,0,1,3.89-3.33,5,5,0,0,1,2.66-.06,8.09,8.09,0,0,1,2.33,1l-.51.88A5,5,0,0,0,79.87,74a6.19,6.19,0,0,0-3,2.92,29.16,29.16,0,0,0-2.75,8.74,85.27,85.27,0,0,0-1.06,9.31c-.19,3.12-.28,6.28-.22,9.37h0v1.5h-1.5l-14.23,0-14.23,0-14.23-.08-7.12,0c-1.17,0-2.39,0-3.64-.09a22.83,22.83,0,0,1-3.74-.56,11.73,11.73,0,0,1-6.74-4,7.87,7.87,0,0,1-1.6-3.87c0-.15,0-.46,0-.57V95.26l0-1.78.09-7.11,0-3.56v-.89a5.39,5.39,0,0,1,.1-1.07,5.65,5.65,0,0,1,.84-2,17.39,17.39,0,0,1,5.71-4.83,57.13,57.13,0,0,1,6.47-3.2A118.68,118.68,0,0,1,32.62,66.2Z" transform="translate(-5.79 -47.08)"/>
  <path class="cls-2" d="M19.87,73.7l45-.22-.5.23h0a21.46,21.46,0,0,1,4.16-3.65,27.62,27.62,0,0,1,4.84-2.63A31,31,0,0,1,84.2,65.1v3a28.55,28.55,0,0,0-10,1.35,26.35,26.35,0,0,0-4.67,2.09,19.93,19.93,0,0,0-4.08,3h0l-.21.23h-.3l-45-.22Z" transform="translate(-5.79 -47.08)"/>
  <polygon class="cls-2" points="59.11 4.44 30.05 19.48 29.91 18.86 78.42 18.02 78.4 21.02 29.9 19.52 28.57 19.48 29.76 18.89 59.11 4.44"/>
  <polygon class="cls-2" points="91.28 42.14 90.43 19.52 90.4 18.68 91.28 18.67 129.88 18.02 129.88 21.02 91.28 20.37 92.13 19.52 91.28 42.14"/>
  <path class="cls-2" d="M64.87,51.39a140,140,0,0,1,20.56-3.64,114.37,114.37,0,0,1,20.94-.33,64.66,64.66,0,0,1,20.52,4.86,40.77,40.77,0,0,1,9.18,5.53,35.55,35.55,0,0,1,7.3,8l-1.26-.69h0a3.62,3.62,0,0,1,.91.14,5.5,5.5,0,0,1,.72.23,6.68,6.68,0,0,1,1.26.7,8.52,8.52,0,0,1,1.9,1.89A14.35,14.35,0,0,1,149,72.53,34.66,34.66,0,0,1,150,81.68h-3a31.32,31.32,0,0,0-1-8.33,11.17,11.17,0,0,0-1.6-3.51,5.8,5.8,0,0,0-1.2-1.22,3.72,3.72,0,0,0-.67-.37l-.33-.11c-.08,0-.27,0-.18,0h0l-1.27-.69a35,35,0,0,0-14.92-13,62.81,62.81,0,0,0-19.72-5.33,112.55,112.55,0,0,0-20.69-.34,139.79,139.79,0,0,0-20.57,2.94Z" transform="translate(-5.79 -47.08)"/>
  <path class="cls-1" d="M129.24,96.76" transform="translate(-5.79 -47.08)"/>
  <path class="cls-2" d="M109.94,98.26c-3.35.12-6.7.14-10.06.14s-6.7-.05-10-.12l-1.31,0L88.33,97c-.29-2-.66-4-1.15-5.9a30.32,30.32,0,0,0-1.84-5.62c-.78-1.72-2-3.39-3.33-2.8a5.48,5.48,0,0,0-2.1,1.65,23.3,23.3,0,0,0-1.77,2.43l-.74-.39.67-1.43c.27-.46.51-.93.82-1.38a6.79,6.79,0,0,1,2.47-2.4,3.5,3.5,0,0,1,1-.32,3.43,3.43,0,0,1,1.06,0,3.91,3.91,0,0,1,1.79.87,9.74,9.74,0,0,1,2.17,2.69,30.18,30.18,0,0,1,2.46,5.94,57.58,57.58,0,0,1,1.54,6.15l-1.51-1.28c3.35-.07,6.7-.13,10-.11s6.71,0,10.06.13Z" transform="translate(-5.79 -47.08)"/>
  <path class="cls-1" d="M77.77,96.76" transform="translate(-5.79 -47.08)"/>
  <path class="cls-1" d="M90.64,89.22" transform="translate(-5.79 -47.08)"/>
  <path class="cls-1" d="M71.34,96.76" transform="translate(-5.79 -47.08)"/>
  <path class="cls-1" d="M77.77,96.76" transform="translate(-5.79 -47.08)"/>
  <path class="cls-2" d="M74.88,100.7a13.62,13.62,0,0,0,2.55,7,8.41,8.41,0,0,0,6.11,3.28h1.74a2.89,2.89,0,0,0,1.22-.62,5.88,5.88,0,0,0,1.74-2.72,20.27,20.27,0,0,0,.71-7.22l3,0a22.67,22.67,0,0,1-1.44,8.16,8.16,8.16,0,0,1-2.72,3.58,4.83,4.83,0,0,1-2.32.89.61.61,0,0,1-.2,0h-.13l-.26,0-.53,0-1-.09a10,10,0,0,1-7-4.38,12.3,12.3,0,0,1-1.67-3.72,16.22,16.22,0,0,1-.58-4Z" transform="translate(-5.79 -47.08)"/>
  <path class="cls-2" d="M135.48,93.74a13.84,13.84,0,0,0,2,6.35,6.81,6.81,0,0,0,5.14,3.21l.79,0H144c-.07,0,0,0,0,0a2.27,2.27,0,0,0,1-.64,6.21,6.21,0,0,0,1.32-2.6,21.47,21.47,0,0,0,.51-6.6l3,0a24,24,0,0,1-1.11,7.42,8.52,8.52,0,0,1-2.16,3.49,4.37,4.37,0,0,1-2.08,1.09,2.67,2.67,0,0,1-.41,0l-.25,0-.49,0-1-.08a8.67,8.67,0,0,1-6.19-4.43,15.07,15.07,0,0,1-1.79-7.15Z" transform="translate(-5.79 -47.08)"/>
  <path class="cls-1" d="M7.5,79.55" transform="translate(-5.79 -47.08)"/>
  <path class="cls-1" d="M8.86,77.91" transform="translate(-5.79 -47.08)"/>
  <path class="cls-2" d="M52.85,82.56A28,28,0,0,0,50.05,85a8.33,8.33,0,0,0-2,2.71.86.86,0,0,0,0,.51c0,.1.08.11.21.19a3.69,3.69,0,0,0,1.25.33,17.88,17.88,0,0,0,3.41-.09v3a19.22,19.22,0,0,1-3.92-.72,4.78,4.78,0,0,1-2-1.18,2,2,0,0,1-.58-1.42A2.47,2.47,0,0,1,46.66,87a9.26,9.26,0,0,1,2.93-2.66A28,28,0,0,1,52.85,82.56Z" transform="translate(-5.79 -47.08)"/>
  <path class="cls-2" d="M7.4,87.32a25.2,25.2,0,0,0,3.43-.46,6.6,6.6,0,0,0,2.86-1.14.62.62,0,0,0,.23-.35.77.77,0,0,0-.09-.5,4.56,4.56,0,0,0-1.08-1.19A19.61,19.61,0,0,0,9.7,81.77l.08-.19a21,21,0,0,1,3.46,1.35,5.28,5.28,0,0,1,1.62,1.24,2.12,2.12,0,0,1,.49,1.2A2.14,2.14,0,0,1,15,86.69a5.5,5.5,0,0,1-1.66,1.47,15.55,15.55,0,0,1-1.78.89,26.35,26.35,0,0,1-3.67,1.23Z" transform="translate(-5.79 -47.08)"/>
  <path class="cls-1" d="M81.49,66.6" transform="translate(-5.79 -47.08)"/>
  <path class="cls-1" d="M81.49,59.06" transform="translate(-5.79 -47.08)"/>
  <polygon class="cls-2" points="78.36 14.69 86.88 8.21 80.5 16.8 78.36 14.69"/>
</svg>
